<mxfile host="app.diagrams.net" agent="Mozilla/5.0 (Windows NT 10.0; Win64; x64) AppleWebKit/537.36 (KHTML, like Gecko) Chrome/129.0.0.0 Safari/537.36" version="24.7.17">
  <diagram name="第 1 页" id="jtSVme3HzTJTa3GQ6p2B">
    <mxGraphModel dx="3241" dy="2558" grid="1" gridSize="10" guides="1" tooltips="1" connect="1" arrows="1" fold="1" page="1" pageScale="1" pageWidth="827" pageHeight="1169" math="0" shadow="0">
      <root>
        <mxCell id="0" />
        <mxCell id="1" parent="0" />
        <mxCell id="FZHJ4O8qWLm-vYG1RaeI-56" style="edgeStyle=orthogonalEdgeStyle;rounded=0;orthogonalLoop=1;jettySize=auto;html=1;exitX=1;exitY=0.25;exitDx=0;exitDy=0;entryX=1;entryY=0.5;entryDx=0;entryDy=0;" edge="1" parent="1" source="FZHJ4O8qWLm-vYG1RaeI-4" target="FZHJ4O8qWLm-vYG1RaeI-50">
          <mxGeometry relative="1" as="geometry">
            <Array as="points">
              <mxPoint x="200" y="450" />
              <mxPoint x="200" y="-330" />
              <mxPoint x="118" y="-330" />
            </Array>
          </mxGeometry>
        </mxCell>
        <mxCell id="FZHJ4O8qWLm-vYG1RaeI-4" value="&lt;div style=&quot;color: rgb(204, 204, 204); background-color: rgb(31, 31, 31); font-family: Consolas, &amp;quot;Courier New&amp;quot;, monospace; font-size: 14px; line-height: 19px; white-space: pre;&quot;&gt;&lt;b&gt;&lt;span style=&quot;color: rgb(86, 156, 214);&quot;&gt;struct&lt;/span&gt; &lt;span style=&quot;color: rgb(78, 201, 176);&quot;&gt;list_head&lt;/span&gt; &lt;span style=&quot;color: rgb(156, 220, 254);&quot;&gt;m_list&lt;/span&gt;;&lt;/b&gt;&lt;br&gt;&lt;/div&gt;" style="rounded=0;whiteSpace=wrap;html=1;" vertex="1" parent="1">
          <mxGeometry x="-90" y="440" width="210" height="40" as="geometry" />
        </mxCell>
        <mxCell id="FZHJ4O8qWLm-vYG1RaeI-10" value="&lt;h1&gt;&lt;span style=&quot;font-weight: normal;&quot;&gt;data&lt;/span&gt;&lt;/h1&gt;" style="whiteSpace=wrap;html=1;aspect=fixed;backgroundcolor=lightblue;fillColor=#FF6666;" vertex="1" parent="1">
          <mxGeometry x="-90" y="630" width="210" height="210" as="geometry" />
        </mxCell>
        <mxCell id="FZHJ4O8qWLm-vYG1RaeI-16" value="&lt;div style=&quot;color: rgb(204, 204, 204); background-color: rgb(31, 31, 31); font-family: Consolas, &amp;quot;Courier New&amp;quot;, monospace; font-size: 14px; line-height: 19px; white-space: pre;&quot;&gt;&lt;div style=&quot;line-height: 19px;&quot;&gt;&lt;span style=&quot;color: #569cd6;&quot;&gt;long&lt;/span&gt; &lt;span style=&quot;color: #9cdcfe;&quot;&gt;m_type&lt;/span&gt;;&lt;/div&gt;&lt;/div&gt;" style="rounded=0;whiteSpace=wrap;html=1;" vertex="1" parent="1">
          <mxGeometry x="-90" y="480" width="210" height="40" as="geometry" />
        </mxCell>
        <mxCell id="FZHJ4O8qWLm-vYG1RaeI-18" value="&lt;div style=&quot;color: rgb(204, 204, 204); background-color: rgb(31, 31, 31); font-family: Consolas, &amp;quot;Courier New&amp;quot;, monospace; font-size: 14px; line-height: 19px; white-space: pre;&quot;&gt;&lt;div style=&quot;line-height: 19px;&quot;&gt;&lt;div style=&quot;line-height: 19px;&quot;&gt;&lt;span style=&quot;color: #4ec9b0;&quot;&gt;size_t&lt;/span&gt; &lt;span style=&quot;color: #9cdcfe;&quot;&gt;m_ts&lt;/span&gt;;&lt;span style=&quot;color: #6a9955;&quot;&gt; &lt;/span&gt;&lt;/div&gt;&lt;/div&gt;&lt;/div&gt;" style="rounded=0;whiteSpace=wrap;html=1;" vertex="1" parent="1">
          <mxGeometry x="-90" y="510" width="210" height="40" as="geometry" />
        </mxCell>
        <mxCell id="FZHJ4O8qWLm-vYG1RaeI-22" style="edgeStyle=orthogonalEdgeStyle;rounded=0;orthogonalLoop=1;jettySize=auto;html=1;exitX=1;exitY=0.5;exitDx=0;exitDy=0;entryX=0;entryY=0.5;entryDx=0;entryDy=0;" edge="1" parent="1" source="FZHJ4O8qWLm-vYG1RaeI-19" target="FZHJ4O8qWLm-vYG1RaeI-21">
          <mxGeometry relative="1" as="geometry" />
        </mxCell>
        <mxCell id="FZHJ4O8qWLm-vYG1RaeI-19" value="&lt;div style=&quot;color: rgb(204, 204, 204); background-color: rgb(31, 31, 31); font-family: Consolas, &amp;quot;Courier New&amp;quot;, monospace; font-size: 14px; line-height: 19px; white-space: pre;&quot;&gt;&lt;span style=&quot;color: #569cd6;&quot;&gt;struct&lt;/span&gt; &lt;span style=&quot;color: #4ec9b0;&quot;&gt;msg_msgseg&lt;/span&gt; &lt;span style=&quot;color: #d4d4d4;&quot;&gt;*&lt;/span&gt;&lt;span style=&quot;color: #9cdcfe;&quot;&gt;next&lt;/span&gt;;&lt;/div&gt;" style="rounded=0;whiteSpace=wrap;html=1;" vertex="1" parent="1">
          <mxGeometry x="-90" y="550" width="210" height="40" as="geometry" />
        </mxCell>
        <mxCell id="FZHJ4O8qWLm-vYG1RaeI-20" value="&lt;div style=&quot;color: rgb(204, 204, 204); background-color: rgb(31, 31, 31); font-family: Consolas, &amp;quot;Courier New&amp;quot;, monospace; font-size: 14px; line-height: 19px; white-space: pre;&quot;&gt;&lt;span style=&quot;color: rgba(0, 0, 0, 0); font-family: monospace; font-size: 0px; text-align: start; white-space-collapse: collapse; background-color: rgb(251, 251, 251);&quot;&gt;%3CmxGraphModel%3E%3Croot%3E%3CmxCell%20id%3D%220%22%2F%3E%3CmxCell%20id%3D%221%22%20parent%3D%220%22%2F%3E%3CmxCell%20id%3D%222%22%20value%3D%22%26lt%3Bdiv%20style%3D%26quot%3Bcolor%3A%20rgb(204%2C%20204%2C%20204)%3B%20background-color%3A%20rgb(31%2C%2031%2C%2031)%3B%20font-family%3A%20Consolas%2C%20%26amp%3Bquot%3BCourier%20New%26amp%3Bquot%3B%2C%20monospace%3B%20font-size%3A%2014px%3B%20line-height%3A%2019px%3B%20white-space%3A%20pre%3B%26quot%3B%26gt%3B%26lt%3Bspan%20style%3D%26quot%3Bcolor%3A%20%23569cd6%3B%26quot%3B%26gt%3Bstruct%26lt%3B%2Fspan%26gt%3B%20%26lt%3Bspan%20style%3D%26quot%3Bcolor%3A%20%234ec9b0%3B%26quot%3B%26gt%3Bmsg_msgseg%26lt%3B%2Fspan%26gt%3B%20%26lt%3Bspan%20style%3D%26quot%3Bcolor%3A%20%23d4d4d4%3B%26quot%3B%26gt%3B*%26lt%3B%2Fspan%26gt%3B%26lt%3Bspan%20style%3D%26quot%3Bcolor%3A%20%239cdcfe%3B%26quot%3B%26gt%3Bnext%26lt%3B%2Fspan%26gt%3B%3B%26lt%3B%2Fdiv%26gt%3B%22%20style%3D%22rounded%3D0%3BwhiteSpace%3Dwrap%3Bhtml%3D1%3B%22%20vertex%3D%221%22%20parent%3D%221%22%3E%3CmxGeometry%20x%3D%22-90%22%20y%3D%22550%22%20width%3D%22210%22%20height%3D%2240%22%20as%3D%22geometry%22%2F%3E%3C%2FmxCell%3E%3C%2Froot%3E%3C%2FmxGraphModel%3E&lt;/span&gt;&lt;span style=&quot;color: rgb(86, 156, 214);&quot;&gt;void&lt;/span&gt; &lt;span style=&quot;color: rgb(212, 212, 212);&quot;&gt;*&lt;/span&gt;&lt;span style=&quot;color: rgb(156, 220, 254);&quot;&gt;security&lt;/span&gt;;&lt;/div&gt;" style="rounded=0;whiteSpace=wrap;html=1;" vertex="1" parent="1">
          <mxGeometry x="-90" y="590" width="210" height="40" as="geometry" />
        </mxCell>
        <mxCell id="FZHJ4O8qWLm-vYG1RaeI-31" style="edgeStyle=orthogonalEdgeStyle;rounded=0;orthogonalLoop=1;jettySize=auto;html=1;exitX=1;exitY=0.5;exitDx=0;exitDy=0;entryX=0;entryY=0.5;entryDx=0;entryDy=0;" edge="1" parent="1" source="FZHJ4O8qWLm-vYG1RaeI-21" target="FZHJ4O8qWLm-vYG1RaeI-29">
          <mxGeometry relative="1" as="geometry" />
        </mxCell>
        <mxCell id="FZHJ4O8qWLm-vYG1RaeI-21" value="&lt;div style=&quot;color: rgb(204, 204, 204); background-color: rgb(31, 31, 31); font-family: Consolas, &amp;quot;Courier New&amp;quot;, monospace; font-size: 14px; line-height: 19px; white-space: pre;&quot;&gt;&lt;div style=&quot;line-height: 19px;&quot;&gt;&lt;span style=&quot;color: #569cd6;&quot;&gt;struct&lt;/span&gt; &lt;span style=&quot;color: #4ec9b0;&quot;&gt;msg_msgseg&lt;/span&gt; &lt;span style=&quot;color: #d4d4d4;&quot;&gt;*&lt;/span&gt;&lt;span style=&quot;color: #9cdcfe;&quot;&gt;next&lt;/span&gt;;&lt;/div&gt;&lt;/div&gt;" style="rounded=0;whiteSpace=wrap;html=1;" vertex="1" parent="1">
          <mxGeometry x="260" y="440" width="210" height="40" as="geometry" />
        </mxCell>
        <mxCell id="FZHJ4O8qWLm-vYG1RaeI-23" value="&lt;h1&gt;data&lt;/h1&gt;" style="rounded=0;whiteSpace=wrap;html=1;fillColor=#FF6666;" vertex="1" parent="1">
          <mxGeometry x="260" y="480" width="210" height="360" as="geometry" />
        </mxCell>
        <mxCell id="FZHJ4O8qWLm-vYG1RaeI-26" value="&lt;h1&gt;0x30&lt;/h1&gt;" style="text;html=1;align=center;verticalAlign=middle;resizable=0;points=[];autosize=1;strokeColor=none;fillColor=none;" vertex="1" parent="1">
          <mxGeometry x="-215" y="500" width="80" height="70" as="geometry" />
        </mxCell>
        <mxCell id="FZHJ4O8qWLm-vYG1RaeI-28" value="&lt;h1&gt;0xfd0&lt;/h1&gt;" style="text;html=1;align=center;verticalAlign=middle;resizable=0;points=[];autosize=1;strokeColor=none;fillColor=none;" vertex="1" parent="1">
          <mxGeometry x="-215" y="688" width="90" height="70" as="geometry" />
        </mxCell>
        <mxCell id="FZHJ4O8qWLm-vYG1RaeI-29" value="&lt;div style=&quot;color: rgb(204, 204, 204); background-color: rgb(31, 31, 31); font-family: Consolas, &amp;quot;Courier New&amp;quot;, monospace; font-size: 14px; line-height: 19px; white-space: pre;&quot;&gt;&lt;div style=&quot;line-height: 19px;&quot;&gt;&lt;span style=&quot;color: #569cd6;&quot;&gt;struct&lt;/span&gt; &lt;span style=&quot;color: #4ec9b0;&quot;&gt;msg_msgseg&lt;/span&gt; &lt;span style=&quot;color: #d4d4d4;&quot;&gt;*&lt;/span&gt;&lt;span style=&quot;color: #9cdcfe;&quot;&gt;next&lt;/span&gt;;&lt;/div&gt;&lt;/div&gt;" style="rounded=0;whiteSpace=wrap;html=1;" vertex="1" parent="1">
          <mxGeometry x="580" y="440" width="210" height="40" as="geometry" />
        </mxCell>
        <mxCell id="FZHJ4O8qWLm-vYG1RaeI-30" value="&lt;h1&gt;data&lt;/h1&gt;" style="rounded=0;whiteSpace=wrap;html=1;fillColor=#FF6666;" vertex="1" parent="1">
          <mxGeometry x="580" y="480" width="210" height="360" as="geometry" />
        </mxCell>
        <mxCell id="FZHJ4O8qWLm-vYG1RaeI-47" style="edgeStyle=orthogonalEdgeStyle;rounded=0;orthogonalLoop=1;jettySize=auto;html=1;exitX=0;exitY=0.75;exitDx=0;exitDy=0;entryX=0;entryY=0.5;entryDx=0;entryDy=0;" edge="1" parent="1" source="FZHJ4O8qWLm-vYG1RaeI-32" target="FZHJ4O8qWLm-vYG1RaeI-4">
          <mxGeometry relative="1" as="geometry">
            <mxPoint x="-355" y="480" as="targetPoint" />
            <mxPoint x="-369.99999999999955" y="-40" as="sourcePoint" />
            <Array as="points">
              <mxPoint x="-220" y="-20" />
              <mxPoint x="-220" y="460" />
            </Array>
          </mxGeometry>
        </mxCell>
        <mxCell id="FZHJ4O8qWLm-vYG1RaeI-54" style="edgeStyle=orthogonalEdgeStyle;rounded=0;orthogonalLoop=1;jettySize=auto;html=1;exitX=1;exitY=0.5;exitDx=0;exitDy=0;entryX=1;entryY=0.25;entryDx=0;entryDy=0;" edge="1" parent="1" source="FZHJ4O8qWLm-vYG1RaeI-32" target="FZHJ4O8qWLm-vYG1RaeI-50">
          <mxGeometry relative="1" as="geometry">
            <Array as="points">
              <mxPoint x="180" y="-30" />
              <mxPoint x="180" y="-350" />
            </Array>
          </mxGeometry>
        </mxCell>
        <mxCell id="FZHJ4O8qWLm-vYG1RaeI-32" value="&lt;div style=&quot;color: rgb(204, 204, 204); background-color: rgb(31, 31, 31); font-family: Consolas, &amp;quot;Courier New&amp;quot;, monospace; font-size: 14px; line-height: 19px; white-space: pre;&quot;&gt;&lt;b&gt;&lt;span style=&quot;color: rgb(86, 156, 214);&quot;&gt;struct&lt;/span&gt; &lt;span style=&quot;color: rgb(78, 201, 176);&quot;&gt;list_head&lt;/span&gt; &lt;span style=&quot;color: rgb(156, 220, 254);&quot;&gt;m_list&lt;/span&gt;;&lt;/b&gt;&lt;br&gt;&lt;/div&gt;" style="rounded=0;whiteSpace=wrap;html=1;" vertex="1" parent="1">
          <mxGeometry x="-105" y="-50" width="210" height="40" as="geometry" />
        </mxCell>
        <mxCell id="FZHJ4O8qWLm-vYG1RaeI-33" value="&lt;h1&gt;&lt;span style=&quot;font-weight: normal;&quot;&gt;data&lt;/span&gt;&lt;/h1&gt;" style="whiteSpace=wrap;html=1;aspect=fixed;backgroundcolor=lightblue;fillColor=#FF6666;" vertex="1" parent="1">
          <mxGeometry x="-105" y="140" width="210" height="210" as="geometry" />
        </mxCell>
        <mxCell id="FZHJ4O8qWLm-vYG1RaeI-34" value="&lt;div style=&quot;color: rgb(204, 204, 204); background-color: rgb(31, 31, 31); font-family: Consolas, &amp;quot;Courier New&amp;quot;, monospace; font-size: 14px; line-height: 19px; white-space: pre;&quot;&gt;&lt;div style=&quot;line-height: 19px;&quot;&gt;&lt;span style=&quot;color: #569cd6;&quot;&gt;long&lt;/span&gt; &lt;span style=&quot;color: #9cdcfe;&quot;&gt;m_type&lt;/span&gt;;&lt;/div&gt;&lt;/div&gt;" style="rounded=0;whiteSpace=wrap;html=1;" vertex="1" parent="1">
          <mxGeometry x="-105" y="-10" width="210" height="40" as="geometry" />
        </mxCell>
        <mxCell id="FZHJ4O8qWLm-vYG1RaeI-35" value="&lt;div style=&quot;color: rgb(204, 204, 204); background-color: rgb(31, 31, 31); font-family: Consolas, &amp;quot;Courier New&amp;quot;, monospace; font-size: 14px; line-height: 19px; white-space: pre;&quot;&gt;&lt;div style=&quot;line-height: 19px;&quot;&gt;&lt;div style=&quot;line-height: 19px;&quot;&gt;&lt;span style=&quot;color: #4ec9b0;&quot;&gt;size_t&lt;/span&gt; &lt;span style=&quot;color: #9cdcfe;&quot;&gt;m_ts&lt;/span&gt;;&lt;span style=&quot;color: #6a9955;&quot;&gt; &lt;/span&gt;&lt;/div&gt;&lt;/div&gt;&lt;/div&gt;" style="rounded=0;whiteSpace=wrap;html=1;" vertex="1" parent="1">
          <mxGeometry x="-105" y="20" width="210" height="40" as="geometry" />
        </mxCell>
        <mxCell id="FZHJ4O8qWLm-vYG1RaeI-36" style="edgeStyle=orthogonalEdgeStyle;rounded=0;orthogonalLoop=1;jettySize=auto;html=1;exitX=1;exitY=0.5;exitDx=0;exitDy=0;entryX=0;entryY=0.5;entryDx=0;entryDy=0;" edge="1" parent="1" source="FZHJ4O8qWLm-vYG1RaeI-37" target="FZHJ4O8qWLm-vYG1RaeI-40">
          <mxGeometry relative="1" as="geometry" />
        </mxCell>
        <mxCell id="FZHJ4O8qWLm-vYG1RaeI-37" value="&lt;div style=&quot;color: rgb(204, 204, 204); background-color: rgb(31, 31, 31); font-family: Consolas, &amp;quot;Courier New&amp;quot;, monospace; font-size: 14px; line-height: 19px; white-space: pre;&quot;&gt;&lt;span style=&quot;color: #569cd6;&quot;&gt;struct&lt;/span&gt; &lt;span style=&quot;color: #4ec9b0;&quot;&gt;msg_msgseg&lt;/span&gt; &lt;span style=&quot;color: #d4d4d4;&quot;&gt;*&lt;/span&gt;&lt;span style=&quot;color: #9cdcfe;&quot;&gt;next&lt;/span&gt;;&lt;/div&gt;" style="rounded=0;whiteSpace=wrap;html=1;" vertex="1" parent="1">
          <mxGeometry x="-105" y="60" width="210" height="40" as="geometry" />
        </mxCell>
        <mxCell id="FZHJ4O8qWLm-vYG1RaeI-38" value="&lt;div style=&quot;color: rgb(204, 204, 204); background-color: rgb(31, 31, 31); font-family: Consolas, &amp;quot;Courier New&amp;quot;, monospace; font-size: 14px; line-height: 19px; white-space: pre;&quot;&gt;&lt;span style=&quot;color: rgba(0, 0, 0, 0); font-family: monospace; font-size: 0px; text-align: start; white-space-collapse: collapse; background-color: rgb(251, 251, 251);&quot;&gt;%3CmxGraphModel%3E%3Croot%3E%3CmxCell%20id%3D%220%22%2F%3E%3CmxCell%20id%3D%221%22%20parent%3D%220%22%2F%3E%3CmxCell%20id%3D%222%22%20value%3D%22%26lt%3Bdiv%20style%3D%26quot%3Bcolor%3A%20rgb(204%2C%20204%2C%20204)%3B%20background-color%3A%20rgb(31%2C%2031%2C%2031)%3B%20font-family%3A%20Consolas%2C%20%26amp%3Bquot%3BCourier%20New%26amp%3Bquot%3B%2C%20monospace%3B%20font-size%3A%2014px%3B%20line-height%3A%2019px%3B%20white-space%3A%20pre%3B%26quot%3B%26gt%3B%26lt%3Bspan%20style%3D%26quot%3Bcolor%3A%20%23569cd6%3B%26quot%3B%26gt%3Bstruct%26lt%3B%2Fspan%26gt%3B%20%26lt%3Bspan%20style%3D%26quot%3Bcolor%3A%20%234ec9b0%3B%26quot%3B%26gt%3Bmsg_msgseg%26lt%3B%2Fspan%26gt%3B%20%26lt%3Bspan%20style%3D%26quot%3Bcolor%3A%20%23d4d4d4%3B%26quot%3B%26gt%3B*%26lt%3B%2Fspan%26gt%3B%26lt%3Bspan%20style%3D%26quot%3Bcolor%3A%20%239cdcfe%3B%26quot%3B%26gt%3Bnext%26lt%3B%2Fspan%26gt%3B%3B%26lt%3B%2Fdiv%26gt%3B%22%20style%3D%22rounded%3D0%3BwhiteSpace%3Dwrap%3Bhtml%3D1%3B%22%20vertex%3D%221%22%20parent%3D%221%22%3E%3CmxGeometry%20x%3D%22-90%22%20y%3D%22550%22%20width%3D%22210%22%20height%3D%2240%22%20as%3D%22geometry%22%2F%3E%3C%2FmxCell%3E%3C%2Froot%3E%3C%2FmxGraphModel%3E&lt;/span&gt;&lt;span style=&quot;color: rgb(86, 156, 214);&quot;&gt;void&lt;/span&gt; &lt;span style=&quot;color: rgb(212, 212, 212);&quot;&gt;*&lt;/span&gt;&lt;span style=&quot;color: rgb(156, 220, 254);&quot;&gt;security&lt;/span&gt;;&lt;/div&gt;" style="rounded=0;whiteSpace=wrap;html=1;" vertex="1" parent="1">
          <mxGeometry x="-105" y="100" width="210" height="40" as="geometry" />
        </mxCell>
        <mxCell id="FZHJ4O8qWLm-vYG1RaeI-39" style="edgeStyle=orthogonalEdgeStyle;rounded=0;orthogonalLoop=1;jettySize=auto;html=1;exitX=1;exitY=0.5;exitDx=0;exitDy=0;entryX=0;entryY=0.5;entryDx=0;entryDy=0;" edge="1" parent="1" source="FZHJ4O8qWLm-vYG1RaeI-40" target="FZHJ4O8qWLm-vYG1RaeI-45">
          <mxGeometry relative="1" as="geometry" />
        </mxCell>
        <mxCell id="FZHJ4O8qWLm-vYG1RaeI-40" value="&lt;div style=&quot;color: rgb(204, 204, 204); background-color: rgb(31, 31, 31); font-family: Consolas, &amp;quot;Courier New&amp;quot;, monospace; font-size: 14px; line-height: 19px; white-space: pre;&quot;&gt;&lt;div style=&quot;line-height: 19px;&quot;&gt;&lt;span style=&quot;color: #569cd6;&quot;&gt;struct&lt;/span&gt; &lt;span style=&quot;color: #4ec9b0;&quot;&gt;msg_msgseg&lt;/span&gt; &lt;span style=&quot;color: #d4d4d4;&quot;&gt;*&lt;/span&gt;&lt;span style=&quot;color: #9cdcfe;&quot;&gt;next&lt;/span&gt;;&lt;/div&gt;&lt;/div&gt;" style="rounded=0;whiteSpace=wrap;html=1;" vertex="1" parent="1">
          <mxGeometry x="245" y="-50" width="210" height="40" as="geometry" />
        </mxCell>
        <mxCell id="FZHJ4O8qWLm-vYG1RaeI-41" value="&lt;h1&gt;data&lt;/h1&gt;" style="rounded=0;whiteSpace=wrap;html=1;fillColor=#FF6666;" vertex="1" parent="1">
          <mxGeometry x="245" y="-10" width="210" height="360" as="geometry" />
        </mxCell>
        <mxCell id="FZHJ4O8qWLm-vYG1RaeI-43" value="&lt;h1&gt;0x30&lt;/h1&gt;" style="text;html=1;align=center;verticalAlign=middle;resizable=0;points=[];autosize=1;strokeColor=none;fillColor=none;" vertex="1" parent="1">
          <mxGeometry x="-210" y="10" width="80" height="70" as="geometry" />
        </mxCell>
        <mxCell id="FZHJ4O8qWLm-vYG1RaeI-44" value="&lt;h1&gt;0xfd0&lt;/h1&gt;" style="text;html=1;align=center;verticalAlign=middle;resizable=0;points=[];autosize=1;strokeColor=none;fillColor=none;" vertex="1" parent="1">
          <mxGeometry x="-230" y="198" width="90" height="70" as="geometry" />
        </mxCell>
        <mxCell id="FZHJ4O8qWLm-vYG1RaeI-45" value="&lt;div style=&quot;color: rgb(204, 204, 204); background-color: rgb(31, 31, 31); font-family: Consolas, &amp;quot;Courier New&amp;quot;, monospace; font-size: 14px; line-height: 19px; white-space: pre;&quot;&gt;&lt;div style=&quot;line-height: 19px;&quot;&gt;&lt;span style=&quot;color: #569cd6;&quot;&gt;struct&lt;/span&gt; &lt;span style=&quot;color: #4ec9b0;&quot;&gt;msg_msgseg&lt;/span&gt; &lt;span style=&quot;color: #d4d4d4;&quot;&gt;*&lt;/span&gt;&lt;span style=&quot;color: #9cdcfe;&quot;&gt;next&lt;/span&gt;;&lt;/div&gt;&lt;/div&gt;" style="rounded=0;whiteSpace=wrap;html=1;" vertex="1" parent="1">
          <mxGeometry x="565" y="-50" width="210" height="40" as="geometry" />
        </mxCell>
        <mxCell id="FZHJ4O8qWLm-vYG1RaeI-46" value="&lt;h1&gt;data&lt;/h1&gt;" style="rounded=0;whiteSpace=wrap;html=1;fillColor=#FF6666;" vertex="1" parent="1">
          <mxGeometry x="565" y="-10" width="210" height="360" as="geometry" />
        </mxCell>
        <mxCell id="FZHJ4O8qWLm-vYG1RaeI-50" value="&lt;div style=&quot;color: rgb(204, 204, 204); background-color: rgb(31, 31, 31); font-family: Consolas, &amp;quot;Courier New&amp;quot;, monospace; font-size: 14px; line-height: 19px; white-space: pre;&quot;&gt;&lt;div style=&quot;line-height: 19px;&quot;&gt;&lt;span style=&quot;color: #569cd6;&quot;&gt;struct&lt;/span&gt; &lt;span style=&quot;color: #4ec9b0;&quot;&gt;list_head&lt;/span&gt; &lt;span style=&quot;color: #9cdcfe;&quot;&gt;q_messages&lt;/span&gt;&lt;/div&gt;&lt;/div&gt;" style="rounded=0;whiteSpace=wrap;html=1;" vertex="1" parent="1">
          <mxGeometry x="-125" y="-360" width="242.5" height="40" as="geometry" />
        </mxCell>
        <mxCell id="FZHJ4O8qWLm-vYG1RaeI-51" style="edgeStyle=orthogonalEdgeStyle;rounded=0;orthogonalLoop=1;jettySize=auto;html=1;entryX=0;entryY=0.5;entryDx=0;entryDy=0;exitX=0;exitY=0.5;exitDx=0;exitDy=0;fillColor=#FF6666;strokeColor=default;shadow=1;" edge="1" parent="1" source="FZHJ4O8qWLm-vYG1RaeI-50" target="FZHJ4O8qWLm-vYG1RaeI-32">
          <mxGeometry relative="1" as="geometry">
            <mxPoint x="-130.00000000000023" y="-70.00000000000023" as="targetPoint" />
          </mxGeometry>
        </mxCell>
        <mxCell id="FZHJ4O8qWLm-vYG1RaeI-57" value="&lt;h1&gt;&lt;span style=&quot;font-weight: 400;&quot;&gt;.....&lt;/span&gt;&lt;/h1&gt;" style="whiteSpace=wrap;html=1;backgroundcolor=lightblue;fillColor=#FF6666;" vertex="1" parent="1">
          <mxGeometry x="-122.5" y="-320" width="240" height="240" as="geometry" />
        </mxCell>
        <mxCell id="FZHJ4O8qWLm-vYG1RaeI-59" value="msg_queue" style="text;strokeColor=none;fillColor=none;html=1;fontSize=24;fontStyle=1;verticalAlign=middle;align=center;" vertex="1" parent="1">
          <mxGeometry x="-330" y="-220" width="100" height="40" as="geometry" />
        </mxCell>
        <mxCell id="FZHJ4O8qWLm-vYG1RaeI-62" value="&lt;h1&gt;msg_msg&lt;/h1&gt;" style="text;html=1;align=center;verticalAlign=middle;resizable=0;points=[];autosize=1;strokeColor=none;fillColor=none;" vertex="1" parent="1">
          <mxGeometry x="-400" y="198" width="140" height="70" as="geometry" />
        </mxCell>
        <mxCell id="FZHJ4O8qWLm-vYG1RaeI-63" value="0xff8" style="text;strokeColor=none;fillColor=none;html=1;fontSize=24;fontStyle=1;verticalAlign=middle;align=center;" vertex="1" parent="1">
          <mxGeometry x="160" y="630" width="100" height="40" as="geometry" />
        </mxCell>
      </root>
    </mxGraphModel>
  </diagram>
</mxfile>
